<svg width="679" height="155" viewBox="0 0 679 155" fill="none" xmlns="http://www.w3.org/2000/svg">
<path d="M0.999573 53.7962C3.42653 23.3833 29.6234 -1.34568 59.3179 0.0568597C88.2273 0.204495 114.567 26.1884 114.067 56.2322C106.001 61.5471 96.9358 65.9762 88.6556 70.922C93.3667 56.4537 88.5128 39.4756 76.4494 31.208C68.1692 25.2287 57.1051 23.2357 47.4687 26.7789C32.4786 32.0938 21.8429 49.5886 26.2685 66.05C26.4826 68.0431 27.2678 70.0362 27.6247 71.9554C19.1304 67.8954 9.70807 61.9162 0.856811 57.1919C0.642667 56.0108 1.07095 54.9035 0.999573 53.7962Z" fill="#002237"/>
<path d="M39.7594 55.7891C41.1156 46.3404 49.2531 39.5492 58.3898 40.1397C69.3112 40.8041 77.8055 51.8768 75.3785 63.0233C73.4513 72.9149 63.1724 79.1894 53.6787 77.6392C44.0422 75.7938 38.0462 65.6069 39.7594 55.7891Z" fill="#002237"/>
<path d="M0 61.7683L49.1816 89.6715C40.83 94.7649 32.2643 100.227 23.413 103.918C10.3503 93.8053 1.92729 78.525 0 61.7683Z" fill="#004570"/>
<path d="M0.500244 153.524C3.28411 131.452 18.8452 112.924 37.6184 105.247L46.5411 100.301L115.067 61.6943C112.426 83.323 98.9348 101.851 79.5905 110.488L71.0961 115.212L9.13736 150.276C6.06797 151.678 3.21273 153.967 0.214722 155C0.571627 154.483 0.357482 153.967 0.500244 153.524Z" fill="#004570"/>
<path d="M66.0986 126.802L90.5109 113.146C104.716 121.856 111.854 138.244 115.566 154.484C113.781 154.189 112.068 153.377 110.355 152.712L66.3841 127.688C66.2413 127.393 65.4561 127.171 66.0986 126.802Z" fill="#004570"/>
<path d="M188.975 113.96C184.175 113.96 179.727 113.096 175.631 111.368C171.535 109.576 167.951 107.112 164.879 103.976C161.871 100.84 159.535 97.192 157.871 93.032C156.207 88.872 155.375 84.424 155.375 79.688C155.375 74.888 156.207 70.408 157.871 66.248C159.535 62.088 161.871 58.472 164.879 55.4C167.951 52.264 171.503 49.832 175.535 48.104C179.631 46.312 184.079 45.416 188.879 45.416C194.127 45.416 198.735 46.312 202.703 48.104C206.671 49.896 210.191 52.328 213.263 55.4L207.023 61.64C204.911 59.272 202.319 57.416 199.247 56.072C196.239 54.728 192.783 54.056 188.879 54.056C185.359 54.056 182.127 54.696 179.183 55.976C176.239 57.192 173.679 58.952 171.503 61.256C169.327 63.56 167.631 66.28 166.415 69.416C165.263 72.552 164.687 75.976 164.687 79.688C164.687 83.4 165.263 86.824 166.415 89.96C167.631 93.096 169.327 95.816 171.503 98.12C173.679 100.424 176.239 102.216 179.183 103.496C182.127 104.712 185.359 105.32 188.879 105.32C193.039 105.32 196.655 104.648 199.727 103.304C202.799 101.896 205.391 100.008 207.503 97.64L213.743 103.784C210.671 106.984 207.055 109.48 202.895 111.272C198.799 113.064 194.159 113.96 188.975 113.96ZM241.091 113.96C236.931 113.96 233.155 112.936 229.763 110.888C226.371 108.776 223.683 105.928 221.699 102.344C219.779 98.76 218.819 94.728 218.819 90.248C218.819 85.768 219.779 81.736 221.699 78.152C223.683 74.568 226.339 71.72 229.667 69.608C233.059 67.496 236.867 66.44 241.091 66.44C244.547 66.44 247.619 67.176 250.307 68.648C253.059 70.056 255.267 72.04 256.931 74.6C258.595 77.096 259.523 80.008 259.715 83.336V97.064C259.523 100.328 258.595 103.24 256.931 105.8C255.331 108.36 253.155 110.376 250.403 111.848C247.715 113.256 244.611 113.96 241.091 113.96ZM242.531 105.8C246.819 105.8 250.275 104.36 252.899 101.48C255.523 98.536 256.835 94.792 256.835 90.248C256.835 87.112 256.227 84.392 255.011 82.088C253.859 79.72 252.195 77.896 250.019 76.616C247.843 75.272 245.315 74.6 242.435 74.6C239.555 74.6 236.995 75.272 234.755 76.616C232.579 77.96 230.851 79.816 229.571 82.184C228.355 84.488 227.747 87.144 227.747 90.152C227.747 93.224 228.355 95.944 229.571 98.312C230.851 100.616 232.611 102.44 234.851 103.784C237.091 105.128 239.651 105.8 242.531 105.8ZM256.259 113V100.712L257.891 89.576L256.259 78.536V67.4H264.995V113H256.259ZM277.574 113V67.4H286.214V113H277.574ZM286.214 86.984L282.95 85.544C282.95 79.72 284.294 75.08 286.982 71.624C289.67 68.168 293.542 66.44 298.598 66.44C300.902 66.44 302.982 66.856 304.838 67.688C306.694 68.456 308.422 69.768 310.022 71.624L304.358 77.48C303.398 76.456 302.342 75.72 301.19 75.272C300.038 74.824 298.694 74.6 297.158 74.6C293.958 74.6 291.334 75.624 289.286 77.672C287.238 79.72 286.214 82.824 286.214 86.984ZM335.725 113.96C331.181 113.96 327.085 112.936 323.437 110.888C319.789 108.776 316.909 105.928 314.797 102.344C312.685 98.76 311.629 94.696 311.629 90.152C311.629 85.672 312.653 81.64 314.701 78.056C316.813 74.472 319.629 71.656 323.149 69.608C326.733 67.496 330.733 66.44 335.149 66.44C339.373 66.44 343.085 67.4 346.285 69.32C349.549 71.24 352.077 73.896 353.869 77.288C355.725 80.68 356.653 84.52 356.653 88.808C356.653 89.448 356.621 90.152 356.557 90.92C356.493 91.624 356.365 92.456 356.173 93.416H317.677V86.216H351.565L348.397 89C348.397 85.928 347.853 83.336 346.765 81.224C345.677 79.048 344.141 77.384 342.157 76.232C340.173 75.016 337.773 74.408 334.957 74.408C332.013 74.408 329.421 75.048 327.181 76.328C324.941 77.608 323.213 79.4 321.997 81.704C320.781 84.008 320.173 86.728 320.173 89.864C320.173 93.064 320.813 95.88 322.093 98.312C323.373 100.68 325.197 102.536 327.565 103.88C329.933 105.16 332.653 105.8 335.725 105.8C338.285 105.8 340.621 105.352 342.733 104.456C344.909 103.56 346.765 102.216 348.301 100.424L353.869 106.088C351.693 108.648 349.005 110.6 345.805 111.944C342.669 113.288 339.309 113.96 335.725 113.96ZM387.194 113.96C382.65 113.96 378.554 112.936 374.906 110.888C371.258 108.776 368.378 105.928 366.266 102.344C364.154 98.76 363.098 94.696 363.098 90.152C363.098 85.672 364.122 81.64 366.17 78.056C368.282 74.472 371.098 71.656 374.618 69.608C378.202 67.496 382.202 66.44 386.618 66.44C390.842 66.44 394.554 67.4 397.754 69.32C401.018 71.24 403.546 73.896 405.338 77.288C407.194 80.68 408.122 84.52 408.122 88.808C408.122 89.448 408.09 90.152 408.026 90.92C407.962 91.624 407.834 92.456 407.642 93.416H369.146V86.216H403.034L399.866 89C399.866 85.928 399.322 83.336 398.234 81.224C397.146 79.048 395.61 77.384 393.626 76.232C391.642 75.016 389.242 74.408 386.426 74.408C383.482 74.408 380.89 75.048 378.65 76.328C376.41 77.608 374.682 79.4 373.466 81.704C372.25 84.008 371.642 86.728 371.642 89.864C371.642 93.064 372.282 95.88 373.562 98.312C374.842 100.68 376.666 102.536 379.034 103.88C381.402 105.16 384.122 105.8 387.194 105.8C389.754 105.8 392.09 105.352 394.202 104.456C396.378 103.56 398.234 102.216 399.77 100.424L405.338 106.088C403.162 108.648 400.474 110.6 397.274 111.944C394.138 113.288 390.778 113.96 387.194 113.96ZM446.088 113L431.88 93.032L430.248 91.496L412.296 67.4H422.76L435.72 85.16L437.352 86.504L456.552 113H446.088ZM411.432 113L430.248 87.656L435.144 93.992L421.608 113H411.432ZM438.024 91.4L433.032 85.256L445.608 67.4H455.688L438.024 91.4ZM488.511 113.96C485.055 113.96 481.919 113.256 479.103 111.848C476.351 110.376 474.143 108.36 472.479 105.8C470.815 103.24 469.887 100.328 469.695 97.064V83.336C469.887 80.008 470.815 77.096 472.479 74.6C474.207 72.04 476.447 70.056 479.199 68.648C482.015 67.176 485.119 66.44 488.511 66.44C492.671 66.44 496.415 67.496 499.743 69.608C503.135 71.72 505.791 74.568 507.711 78.152C509.631 81.736 510.591 85.768 510.591 90.248C510.591 94.728 509.631 98.76 507.711 102.344C505.791 105.928 503.135 108.776 499.743 110.888C496.415 112.936 492.671 113.96 488.511 113.96ZM464.511 132.104V67.4H473.151V79.4L471.519 90.44L473.151 101.576V132.104H464.511ZM487.071 105.8C489.951 105.8 492.479 105.128 494.655 103.784C496.831 102.44 498.559 100.616 499.839 98.312C501.119 95.944 501.759 93.224 501.759 90.152C501.759 87.144 501.119 84.456 499.839 82.088C498.559 79.72 496.831 77.896 494.655 76.616C492.479 75.272 489.983 74.6 487.167 74.6C484.287 74.6 481.759 75.272 479.583 76.616C477.407 77.896 475.711 79.72 474.495 82.088C473.279 84.456 472.671 87.176 472.671 90.248C472.671 93.256 473.247 95.944 474.399 98.312C475.615 100.616 477.311 102.44 479.487 103.784C481.727 105.128 484.255 105.8 487.071 105.8ZM539.778 113.96C535.618 113.96 531.842 112.936 528.45 110.888C525.058 108.776 522.37 105.928 520.386 102.344C518.466 98.76 517.506 94.728 517.506 90.248C517.506 85.768 518.466 81.736 520.386 78.152C522.37 74.568 525.026 71.72 528.354 69.608C531.746 67.496 535.554 66.44 539.778 66.44C543.234 66.44 546.306 67.176 548.994 68.648C551.746 70.056 553.954 72.04 555.618 74.6C557.282 77.096 558.21 80.008 558.402 83.336V97.064C558.21 100.328 557.282 103.24 555.618 105.8C554.018 108.36 551.842 110.376 549.09 111.848C546.402 113.256 543.298 113.96 539.778 113.96ZM541.218 105.8C545.506 105.8 548.962 104.36 551.586 101.48C554.21 98.536 555.522 94.792 555.522 90.248C555.522 87.112 554.914 84.392 553.698 82.088C552.546 79.72 550.882 77.896 548.706 76.616C546.53 75.272 544.002 74.6 541.122 74.6C538.242 74.6 535.682 75.272 533.442 76.616C531.266 77.96 529.538 79.816 528.258 82.184C527.042 84.488 526.434 87.144 526.434 90.152C526.434 93.224 527.042 95.944 528.258 98.312C529.538 100.616 531.298 102.44 533.538 103.784C535.778 105.128 538.338 105.8 541.218 105.8ZM554.946 113V100.712L556.578 89.576L554.946 78.536V67.4H563.682V113H554.946ZM608.517 113V86.408C608.517 82.952 607.429 80.104 605.253 77.864C603.077 75.624 600.261 74.504 596.805 74.504C594.501 74.504 592.453 75.016 590.661 76.04C588.869 77.064 587.461 78.472 586.437 80.264C585.413 82.056 584.901 84.104 584.901 86.408L581.349 84.392C581.349 80.936 582.117 77.864 583.653 75.176C585.189 72.488 587.333 70.376 590.085 68.84C592.837 67.24 595.941 66.44 599.397 66.44C602.853 66.44 605.893 67.304 608.517 69.032C611.205 70.76 613.317 73.032 614.853 75.848C616.389 78.6 617.157 81.544 617.157 84.68V113H608.517ZM576.261 113V67.4H584.901V113H576.261ZM648.151 113.96C643.927 113.96 640.151 112.936 636.823 110.888C633.495 108.776 630.839 105.928 628.855 102.344C626.935 98.76 625.975 94.728 625.975 90.248C625.975 85.768 626.935 81.736 628.855 78.152C630.839 74.568 633.495 71.72 636.823 69.608C640.151 67.496 643.927 66.44 648.151 66.44C651.543 66.44 654.615 67.176 657.367 68.648C660.119 70.056 662.327 72.04 663.991 74.6C665.719 77.096 666.679 80.008 666.871 83.336V97.064C666.679 100.328 665.751 103.24 664.087 105.8C662.423 108.36 660.215 110.376 657.463 111.848C654.711 113.256 651.607 113.96 648.151 113.96ZM649.591 105.8C652.471 105.8 654.967 105.128 657.079 103.784C659.255 102.44 660.951 100.616 662.167 98.312C663.383 95.944 663.991 93.256 663.991 90.248C663.991 87.112 663.351 84.392 662.071 82.088C660.855 79.784 659.159 77.96 656.983 76.616C654.871 75.272 652.375 74.6 649.495 74.6C646.615 74.6 644.087 75.272 641.911 76.616C639.735 77.96 638.007 79.816 636.727 82.184C635.511 84.488 634.903 87.144 634.903 90.152C634.903 93.224 635.511 95.944 636.727 98.312C638.007 100.616 639.735 102.44 641.911 103.784C644.151 105.128 646.711 105.8 649.591 105.8ZM672.151 113H663.415V100.712L665.047 89.576L663.415 78.536V44.456H672.151V113Z" fill="#002237"/>
</svg>
