<svg width="26" height="26" viewBox="0 0 26 26" fill="none" xmlns="http://www.w3.org/2000/svg">
<path d="M2.78768 9.16823L12.1683 4.47848C12.2584 4.43347 12.3578 4.41003 12.4586 4.41003C12.5594 4.41003 12.6588 4.43347 12.7489 4.47848L22.1295 9.16931C22.2374 9.22333 22.3281 9.30631 22.3915 9.40896C22.4549 9.5116 22.4885 9.62987 22.4885 9.75052C22.4885 9.87117 22.4549 9.98944 22.3915 10.0921C22.3281 10.1947 22.2374 10.2777 22.1295 10.3317L12.7489 15.0215C12.6588 15.0665 12.5594 15.0899 12.4586 15.0899C12.3578 15.0899 12.2584 15.0665 12.1683 15.0215L2.78768 10.3306C2.6798 10.2766 2.58909 10.1936 2.52569 10.091C2.46229 9.98835 2.42871 9.87009 2.42871 9.74944C2.42871 9.62879 2.46229 9.51052 2.52569 9.40787C2.58909 9.30522 2.6798 9.22225 2.78768 9.16823Z" stroke="white" stroke-width="1.625" stroke-linecap="round" stroke-linejoin="round"/>
<path d="M24.375 14.0833V10.2917L22.2083 9.20833M4.875 11.375V17.238C4.87492 17.6479 4.99112 18.0494 5.21011 18.3959C5.4291 18.7424 5.74189 19.0197 6.11217 19.1956L11.5288 21.7674C11.8193 21.9054 12.1368 21.9769 12.4583 21.9769C12.7799 21.9769 13.0974 21.9054 13.3878 21.7674L18.8045 19.1956C19.1748 19.0197 19.4876 18.7424 19.7066 18.3959C19.9255 18.0494 20.0417 17.6479 20.0417 17.238V11.375" stroke="white" stroke-width="1.625" stroke-linecap="round" stroke-linejoin="round"/>
</svg>
