<svg width="25" height="25" viewBox="0 0 25 25" fill="none" xmlns="http://www.w3.org/2000/svg">
<path d="M3.0332 20.6267V3.63999C3.0332 3.47909 3.09712 3.32479 3.21089 3.21101C3.32466 3.09724 3.47897 3.03333 3.63987 3.03333H20.6265C20.7874 3.03333 20.9417 3.09724 21.0555 3.21101C21.1693 3.32479 21.2332 3.47909 21.2332 3.63999V20.6267C21.2332 20.7876 21.1693 20.9419 21.0555 21.0556C20.9417 21.1694 20.7874 21.2333 20.6265 21.2333H3.63987C3.47897 21.2333 3.32466 21.1694 3.21089 21.0556C3.09712 20.9419 3.0332 20.7876 3.0332 20.6267Z" stroke="white" stroke-width="1.51667"/>
<path d="M16.1778 7.58633C15.5092 7.25147 14.7718 7.07732 14.0241 7.07774C11.3042 7.07774 9.09998 9.34162 9.09998 12.1333C9.09998 14.925 11.3042 17.1889 14.0241 17.1889C14.772 17.1912 15.5099 17.0169 16.1778 16.6803M8.08887 11.1222H14.1555M8.08887 13.1444H14.1555" stroke="white" stroke-width="1.51667" stroke-linecap="round" stroke-linejoin="round"/>
</svg>
