<svg width="26" height="26" viewBox="0 0 26 26" fill="none" xmlns="http://www.w3.org/2000/svg">
<path d="M16.25 4.33334V2.16667M16.25 4.33334V6.50001M16.25 4.33334H11.375M3.25 10.8333V20.5833C3.25 21.158 3.47827 21.7091 3.8846 22.1154C4.29093 22.5217 4.84203 22.75 5.41667 22.75H20.5833C21.158 22.75 21.7091 22.5217 22.1154 22.1154C22.5217 21.7091 22.75 21.158 22.75 20.5833V10.8333M3.25 10.8333H22.75M3.25 10.8333V6.50001C3.25 5.92537 3.47827 5.37427 3.8846 4.96794C4.29093 4.56161 4.84203 4.33334 5.41667 4.33334H7.58333M22.75 10.8333V6.50001C22.75 5.92537 22.5217 5.37427 22.1154 4.96794C21.7091 4.56161 21.158 4.33334 20.5833 4.33334H20.0417M7.58333 2.16667V6.50001" stroke="white" stroke-width="1.625" stroke-linecap="round" stroke-linejoin="round"/>
</svg>
