<svg width="25" height="25" viewBox="0 0 25 25" fill="none" xmlns="http://www.w3.org/2000/svg">
<path d="M17.189 13.1444H12.1334V8.08888M5.05566 3.53888L7.07789 2.02222M19.2112 3.53888L17.189 2.02222" stroke="white" stroke-width="1.51667" stroke-linecap="round" stroke-linejoin="round"/>
<path d="M12.1332 22.2444C13.3282 22.2444 14.5116 22.009 15.6156 21.5517C16.7197 21.0944 17.7229 20.4241 18.5679 19.579C19.4129 18.734 20.0832 17.7309 20.5405 16.6268C20.9978 15.5227 21.2332 14.3394 21.2332 13.1444C21.2332 11.9493 20.9978 10.766 20.5405 9.66195C20.0832 8.55789 19.4129 7.55471 18.5679 6.7097C17.7229 5.86469 16.7197 5.19439 15.6156 4.73707C14.5116 4.27975 13.3282 4.04437 12.1332 4.04437C9.71973 4.04437 7.40511 5.00312 5.69853 6.7097C3.99195 8.41628 3.0332 10.7309 3.0332 13.1444C3.0332 15.5578 3.99195 17.8725 5.69853 19.579C7.40511 21.2856 9.71973 22.2444 12.1332 22.2444Z" stroke="white" stroke-width="1.51667" stroke-linecap="round" stroke-linejoin="round"/>
</svg>
