<?xml version="1.0" encoding="UTF-8"?>
<svg id="Layer_1" data-name="Layer 1" xmlns="http://www.w3.org/2000/svg" viewBox="0 0 344.29 103.62">
  <defs>
    <style>
      .cls-1 {
        fill: #fff;
        font-family: NotoSansHK-Medium-83pv-RKSJ-H, 'Noto Sans HK';
        font-size: 22.68px;
        font-weight: 500;
      }
    </style>
  </defs>
  <g>
    <path d="M19.69,2.02v77.75h9.77v-42.73s8.97-1.4,12.6-1.4c2.36,0,4.53.24,6.08.94,1.58.62,2.46,1.37,3.28,2.29.81.93,1.39,2.09,1.84,3.53.44,1.44.65,3.1.73,4.02.07.93.11,2.05.11,3.38v29.9h9.77v-30.01c0-4.88-.43-8.82-1.28-11.82-.85-3-2.87-5.57-6.05-7.71-3.55-2.44-10.56-4.2-17.64-3.66-6.5.5-9.43,1.22-9.43,1.22V0l-9.77,2.02h0Z"/>
    <polygon points="0 69.94 0 79.76 9.81 79.76 9.81 69.94 0 69.94 0 69.94"/>
    <path d="M81.43,80.06c.57,0,1.24-.13,1.92-.36v-2.13c-.39.13-.75.18-1.06.18-.65,0-1.01-.31-1.01-1.04v-14.96h-2.65v15.15c0,2.18,1.17,3.16,2.8,3.16h0ZM91.6,66.81c-2.36,0-4.18.96-5.58,2.7l1.92,1.61c.96-1.3,2.18-2,3.6-2,1.71,0,2.75.96,2.75,2.67v.44h-3.29c-1.4,0-2.59.18-3.53.6-1.14.57-1.84,1.53-1.84,3.16,0,2.65,2.18,4.07,4.54,4.07,1.58,0,3.24-.67,4.12-2.18l.21,1.95h2.44v-8.04c0-3.35-2.26-4.98-5.34-4.98h0ZM90.59,77.8c-1.5,0-2.33-.7-2.33-1.79,0-.62.26-1.04.67-1.3.57-.42,1.48-.52,2.41-.52h2.96v.42c-.26,1.74-1.56,3.19-3.71,3.19h0ZM105.47,80.06c2.44,0,4.82-1.3,4.82-4.12,0-4.75-6.79-3.32-6.79-5.68,0-.75.75-1.35,1.97-1.35,1.48,0,2.28.83,2.78,1.76l2.05-1.14c-.93-1.71-2.59-2.72-4.72-2.72-2.46,0-4.62,1.24-4.62,3.84,0,4.51,6.74,2.83,6.74,5.42,0,.91-.75,1.79-2.36,1.79-1.79,0-2.67-1.17-3.06-2.26l-2.13.96c.65,1.94,2.67,3.5,5.32,3.5h0ZM121.81,79.83h2.65v-5.39c0-2.57.29-5.32,3.14-5.32,2.39,0,2.62,1.89,2.62,3.22v7.5h2.65v-8.14c0-3.16-1.63-4.88-4.46-4.88-1.66,0-3.09.62-3.94,2.05v-7.11h-2.65v18.08h0ZM142.61,80.06c2.13,0,3.71-.7,5.13-2.26l-1.84-1.61c-.96,1.09-2,1.48-3.27,1.48-2.2,0-3.42-1.32-3.53-3.4h8.97c.05-.39.08-.8.08-1.17,0-3.35-1.82-6.3-5.76-6.3s-5.94,3.24-5.94,6.69,1.92,6.56,6.15,6.56h0ZM139.14,72.38c-.03-1.71,1.09-3.37,3.24-3.37,1.92,0,3.06,1.19,3.24,2.83.03.18.03.39,0,.54h-6.48ZM155.97,80.06c2.44,0,4.82-1.3,4.82-4.12,0-4.75-6.79-3.32-6.79-5.68,0-.75.75-1.35,1.97-1.35,1.48,0,2.28.83,2.77,1.76l2.05-1.14c-.93-1.71-2.59-2.72-4.72-2.72-2.46,0-4.62,1.24-4.62,3.84,0,4.51,6.74,2.83,6.74,5.42,0,.91-.75,1.79-2.36,1.79-1.79,0-2.67-1.17-3.06-2.26l-2.13.96c.65,1.94,2.67,3.5,5.32,3.5h0ZM164.84,85.12h2.65v-7.11c.78,1.25,2.33,2.05,3.99,2.05,3.16,0,5.39-2.52,5.39-6.61,0-3.81-1.95-6.64-5.39-6.64-1.61,0-3.14.67-3.99,2.02v-1.79h-2.65v18.08h0ZM170.83,77.75c-2.39,0-3.58-1.87-3.58-4.33s1.19-4.31,3.6-4.31c2.26,0,3.37,1.61,3.37,4.31s-1.14,4.33-3.4,4.33h0ZM184.75,65.41h1.97l3.73-3.66h-2.85l-2.85,3.66h0ZM185.92,80.06c2.13,0,3.71-.7,5.14-2.26l-1.84-1.61c-.96,1.09-2,1.48-3.27,1.48-2.2,0-3.42-1.32-3.53-3.4h8.97c.05-.39.08-.8.08-1.17,0-3.35-1.82-6.3-5.76-6.3s-5.94,3.24-5.94,6.69,1.92,6.56,6.15,6.56h0ZM182.45,72.38c-.03-1.71,1.09-3.37,3.24-3.37,1.92,0,3.06,1.19,3.24,2.83.03.18.03.39,0,.54h-6.48ZM195.36,79.83h2.62v-6.64c0-2.62,1.19-3.81,3.11-3.81.6,0,1.09.16,1.53.41l1.3-2.33c-.78-.47-1.5-.65-2.31-.65-1.48,0-3.03.86-3.6,2.57v-2.33h-2.65v12.79h0ZM206.77,64.55h2.77v-2.8h-2.77v2.8h0ZM206.85,79.83h2.62v-12.79h-2.62v12.79h0ZM218.91,80.06c1.61,0,3.14-.67,3.99-2.02v1.79h2.65v-18.08h-2.65v7.11c-.78-1.24-2.33-2.05-3.99-2.05-3.16,0-5.47,2.52-5.47,6.61,0,3.81,2.02,6.64,5.47,6.64h0ZM219.53,77.62c-2.26,0-3.45-1.63-3.45-4.18s1.22-4.25,3.48-4.25c2.39,0,3.58,1.87,3.58,4.25s-1.19,4.18-3.6,4.18h0ZM235.61,80.06c2.13,0,3.71-.7,5.14-2.26l-1.84-1.61c-.96,1.09-2,1.48-3.27,1.48-2.2,0-3.42-1.32-3.53-3.4h8.97c.05-.39.08-.8.08-1.17,0-3.35-1.82-6.3-5.76-6.3s-5.94,3.24-5.94,6.69,1.92,6.56,6.15,6.56h0ZM232.14,72.38c-.03-1.71,1.09-3.37,3.24-3.37,1.92,0,3.06,1.19,3.24,2.83.03.18.03.39,0,.54h-6.48ZM248.97,80.06c2.44,0,4.82-1.3,4.82-4.12,0-4.75-6.8-3.32-6.8-5.68,0-.75.75-1.35,1.97-1.35,1.48,0,2.28.83,2.78,1.76l2.05-1.14c-.93-1.71-2.59-2.72-4.72-2.72-2.46,0-4.62,1.24-4.62,3.84,0,4.51,6.74,2.83,6.74,5.42,0,.91-.75,1.79-2.36,1.79-1.79,0-2.67-1.17-3.06-2.26l-2.13.96c.65,1.94,2.67,3.5,5.32,3.5h0Z"/>
    <path d="M82.94,50.79c1.61,0,3.03-.62,3.89-2.05v1.82h2.65v-12.79h-2.65v5.19c0,2.57-.28,5.52-3.14,5.52-2.39,0-2.62-2.13-2.62-3.45v-7.26h-2.62v7.94c0,2.88,1.37,5.08,4.49,5.08h0ZM94.17,50.56h2.62v-5.39c0-2.57.29-5.32,3.14-5.32,2.39,0,2.62,1.89,2.62,3.22v7.5h2.65v-8.14c0-3.16-1.63-4.88-4.46-4.88-1.66,0-3.09.62-3.94,2.05v-1.82h-2.62v12.79h0ZM109.49,35.28h2.78v-2.8h-2.78v2.8h0ZM109.57,50.56h2.62v-12.79h-2.62v12.79h0ZM120.2,50.56h2.2l5.21-12.79h-2.85l-3.48,9.36-3.42-9.36h-2.88l5.21,12.79h0ZM135.12,50.79c2.13,0,3.71-.7,5.13-2.26l-1.84-1.61c-.96,1.09-2,1.48-3.27,1.48-2.2,0-3.42-1.32-3.53-3.4h8.97c.05-.39.08-.8.08-1.17,0-3.35-1.82-6.3-5.76-6.3s-5.94,3.24-5.94,6.69,1.92,6.56,6.15,6.56h0ZM131.64,43.11c-.03-1.71,1.09-3.37,3.24-3.37,1.92,0,3.06,1.19,3.24,2.83.03.18.03.39,0,.54h-6.48ZM144.3,50.56h2.62v-6.64c0-2.62,1.19-3.81,3.11-3.81.6,0,1.09.16,1.53.41l1.3-2.33c-.78-.47-1.5-.65-2.31-.65-1.48,0-3.03.86-3.61,2.57v-2.33h-2.65v12.79h0ZM158.92,50.79c2.44,0,4.82-1.3,4.82-4.12,0-4.75-6.8-3.32-6.8-5.68,0-.75.75-1.35,1.97-1.35,1.48,0,2.28.83,2.77,1.76l2.05-1.14c-.93-1.71-2.59-2.72-4.72-2.72-2.46,0-4.62,1.24-4.62,3.84,0,4.51,6.74,2.83,6.74,5.42,0,.91-.75,1.79-2.36,1.79-1.79,0-2.67-1.17-3.06-2.26l-2.13.96c.65,1.95,2.67,3.5,5.32,3.5h0ZM167.46,35.28h2.78v-2.8h-2.78v2.8h0ZM167.53,50.56h2.62v-12.79h-2.62v12.79h0ZM179.33,50.79c1.61,0,3.14-.67,3.99-2.02v1.79h2.65v-18.08h-2.65v7.11c-.78-1.24-2.33-2.05-3.99-2.05-3.16,0-5.47,2.52-5.47,6.61,0,3.81,2.02,6.64,5.47,6.64h0ZM179.96,48.35c-2.26,0-3.45-1.63-3.45-4.18s1.22-4.25,3.48-4.25c2.39,0,3.58,1.87,3.58,4.25s-1.19,4.18-3.6,4.18h0ZM195.39,37.54c-2.36,0-4.18.96-5.58,2.7l1.92,1.61c.96-1.3,2.18-2,3.6-2,1.71,0,2.75.96,2.75,2.67v.44h-3.29c-1.4,0-2.59.18-3.53.6-1.14.57-1.84,1.53-1.84,3.16,0,2.65,2.18,4.07,4.54,4.07,1.58,0,3.24-.67,4.12-2.18l.21,1.95h2.44v-8.04c0-3.35-2.26-4.98-5.34-4.98h0ZM194.38,48.54c-1.5,0-2.33-.7-2.33-1.79,0-.62.26-1.04.67-1.3.57-.41,1.48-.52,2.41-.52h2.96v.42c-.26,1.74-1.56,3.19-3.71,3.19h0ZM209.5,50.79c1.61,0,3.14-.67,3.99-2.02v1.79h2.65v-18.08h-2.65v7.11c-.78-1.24-2.33-2.05-3.99-2.05-3.16,0-5.47,2.52-5.47,6.61,0,3.81,2.02,6.64,5.47,6.64h0ZM210.12,48.35c-2.26,0-3.45-1.63-3.45-4.18s1.22-4.25,3.48-4.25c2.39,0,3.58,1.87,3.58,4.25s-1.19,4.18-3.6,4.18h0ZM232.53,50.79c1.61,0,3.14-.67,3.99-2.02v1.79h2.65v-18.08h-2.65v7.11c-.78-1.24-2.33-2.05-3.99-2.05-3.16,0-5.47,2.52-5.47,6.61,0,3.81,2.02,6.64,5.47,6.64h0ZM233.15,48.35c-2.26,0-3.45-1.63-3.45-4.18s1.22-4.25,3.48-4.25c2.39,0,3.58,1.87,3.58,4.25s-1.19,4.18-3.61,4.18h0ZM248.97,50.79c2.13,0,3.71-.7,5.14-2.26l-1.84-1.61c-.96,1.09-2,1.48-3.27,1.48-2.2,0-3.42-1.32-3.53-3.4h8.97c.05-.39.08-.8.08-1.17,0-3.35-1.82-6.3-5.76-6.3s-5.94,3.24-5.94,6.69,1.92,6.56,6.15,6.56h0ZM245.49,43.11c-.03-1.71,1.09-3.37,3.24-3.37,1.92,0,3.06,1.19,3.24,2.83.03.18.03.39,0,.54h-6.48Z"/>
  </g>
  <rect x="265.27" y="59.43" width="79.01" height="25.3"/>
  <text class="cls-1" transform="translate(270.56 79.88)"><tspan x="0" y="0">online</tspan></text>
</svg>
