<?xml version="1.0" encoding="UTF-8"?>
<svg id="Layer_1" xmlns="http://www.w3.org/2000/svg" version="1.1" viewBox="0 0 344.3 103.6">
  <!-- Generator: Adobe Illustrator 30.2.1, SVG Export Plug-In . SVG Version: 2.1.1 Build 1)  -->
  <defs>
    <style>
      .st0 {
        isolation: isolate;
      }

      .st1 {
        fill: #fff;
      }
    </style>
  </defs>
  <g>
    <path d="M19.7,2v77.7h9.8v-42.7s9-1.4,12.6-1.4,4.5.2,6.1.9c1.6.6,2.5,1.4,3.3,2.3.8.9,1.4,2.1,1.8,3.5.4,1.4.7,3.1.7,4,0,.9.1,2,.1,3.4v29.9h9.8v-30c0-4.9-.4-8.8-1.3-11.8s-2.9-5.6-6-7.7c-3.5-2.4-10.6-4.2-17.6-3.7-6.5.5-9.4,1.2-9.4,1.2V0l-9.8,2h0Z"/>
    <polygon points="0 69.9 0 79.8 9.8 79.8 9.8 69.9 0 69.9 0 69.9"/>
    <path d="M81.4,80.1c.6,0,1.2-.1,1.9-.4v-2.1c-.4.1-.8.2-1.1.2-.7,0-1-.3-1-1v-15h-2.7v15.2c0,2.2,1.2,3.2,2.8,3.2h0ZM91.6,66.8c-2.4,0-4.2,1-5.6,2.7l1.9,1.6c1-1.3,2.2-2,3.6-2s2.8,1,2.8,2.7v.4h-3.3c-1.4,0-2.6.2-3.5.6-1.1.6-1.8,1.5-1.8,3.2,0,2.7,2.2,4.1,4.5,4.1s3.2-.7,4.1-2.2l.2,1.9h2.4v-8c0-3.3-2.3-5-5.3-5h0ZM90.6,77.8c-1.5,0-2.3-.7-2.3-1.8s.3-1,.7-1.3c.6-.4,1.5-.5,2.4-.5h3v.4c-.3,1.7-1.6,3.2-3.7,3.2h0ZM105.5,80.1c2.4,0,4.8-1.3,4.8-4.1,0-4.8-6.8-3.3-6.8-5.7s.8-1.3,2-1.3,2.3.8,2.8,1.8l2.1-1.1c-.9-1.7-2.6-2.7-4.7-2.7s-4.6,1.2-4.6,3.8c0,4.5,6.7,2.8,6.7,5.4s-.8,1.8-2.4,1.8-2.7-1.2-3.1-2.3l-2.1,1c.7,1.9,2.7,3.5,5.3,3.5h0ZM121.8,79.8h2.7v-5.4c0-2.6.3-5.3,3.1-5.3s2.6,1.9,2.6,3.2v7.5h2.6v-8.1c0-3.2-1.6-4.9-4.5-4.9s-3.1.6-3.9,2.1v-7.1h-2.7v18.1h0ZM142.6,80.1c2.1,0,3.7-.7,5.1-2.3l-1.8-1.6c-1,1.1-2,1.5-3.3,1.5-2.2,0-3.4-1.3-3.5-3.4h9c0-.4,0-.8,0-1.2,0-3.3-1.8-6.3-5.8-6.3s-5.9,3.2-5.9,6.7,1.9,6.6,6.1,6.6h0ZM139.1,72.4c0-1.7,1.1-3.4,3.2-3.4s3.1,1.2,3.2,2.8c0,.2,0,.4,0,.5h-6.5ZM156,80.1c2.4,0,4.8-1.3,4.8-4.1,0-4.8-6.8-3.3-6.8-5.7s.8-1.3,2-1.3,2.3.8,2.8,1.8l2.1-1.1c-.9-1.7-2.6-2.7-4.7-2.7s-4.6,1.2-4.6,3.8c0,4.5,6.7,2.8,6.7,5.4s-.8,1.8-2.4,1.8-2.7-1.2-3.1-2.3l-2.1,1c.6,1.9,2.7,3.5,5.3,3.5h0ZM164.8,85.1h2.6v-7.1c.8,1.2,2.3,2.1,4,2.1,3.2,0,5.4-2.5,5.4-6.6s-1.9-6.6-5.4-6.6-3.1.7-4,2v-1.8h-2.6v18.1h0ZM170.8,77.8c-2.4,0-3.6-1.9-3.6-4.3s1.2-4.3,3.6-4.3,3.4,1.6,3.4,4.3-1.1,4.3-3.4,4.3h0ZM184.8,65.4h2l3.7-3.7h-2.9l-2.9,3.7h0ZM185.9,80.1c2.1,0,3.7-.7,5.1-2.3l-1.8-1.6c-1,1.1-2,1.5-3.3,1.5-2.2,0-3.4-1.3-3.5-3.4h9c0-.4,0-.8,0-1.2,0-3.3-1.8-6.3-5.8-6.3s-5.9,3.2-5.9,6.7,1.9,6.6,6.1,6.6h0ZM182.4,72.4c0-1.7,1.1-3.4,3.2-3.4s3.1,1.2,3.2,2.8c0,.2,0,.4,0,.5h-6.5ZM195.4,79.8h2.6v-6.6c0-2.6,1.2-3.8,3.1-3.8s1.1.2,1.5.4l1.3-2.3c-.8-.5-1.5-.7-2.3-.7-1.5,0-3,.9-3.6,2.6v-2.3h-2.6v12.8h0ZM206.8,64.6h2.8v-2.8h-2.8v2.8h0ZM206.9,79.8h2.6v-12.8h-2.6v12.8h0ZM218.9,80.1c1.6,0,3.1-.7,4-2v1.8h2.6v-18.1h-2.6v7.1c-.8-1.2-2.3-2.1-4-2.1-3.2,0-5.5,2.5-5.5,6.6s2,6.6,5.5,6.6h0ZM219.5,77.6c-2.3,0-3.4-1.6-3.4-4.2s1.2-4.2,3.5-4.2,3.6,1.9,3.6,4.2-1.2,4.2-3.6,4.2h0ZM235.6,80.1c2.1,0,3.7-.7,5.1-2.3l-1.8-1.6c-1,1.1-2,1.5-3.3,1.5-2.2,0-3.4-1.3-3.5-3.4h9c0-.4,0-.8,0-1.2,0-3.3-1.8-6.3-5.8-6.3s-5.9,3.2-5.9,6.7,1.9,6.6,6.1,6.6h0ZM232.1,72.4c0-1.7,1.1-3.4,3.2-3.4s3.1,1.2,3.2,2.8c0,.2,0,.4,0,.5h-6.5ZM249,80.1c2.4,0,4.8-1.3,4.8-4.1,0-4.8-6.8-3.3-6.8-5.7s.8-1.3,2-1.3,2.3.8,2.8,1.8l2.1-1.1c-.9-1.7-2.6-2.7-4.7-2.7s-4.6,1.2-4.6,3.8c0,4.5,6.7,2.8,6.7,5.4s-.8,1.8-2.4,1.8-2.7-1.2-3.1-2.3l-2.1,1c.6,1.9,2.7,3.5,5.3,3.5h0Z"/>
    <path d="M82.9,50.8c1.6,0,3-.6,3.9-2v1.8h2.7v-12.8h-2.7v5.2c0,2.6-.3,5.5-3.1,5.5s-2.6-2.1-2.6-3.5v-7.3h-2.6v7.9c0,2.9,1.4,5.1,4.5,5.1h0ZM94.2,50.6h2.6v-5.4c0-2.6.3-5.3,3.1-5.3s2.6,1.9,2.6,3.2v7.5h2.7v-8.1c0-3.2-1.6-4.9-4.5-4.9s-3.1.6-3.9,2v-1.8h-2.6v12.8h0ZM109.5,35.3h2.8v-2.8h-2.8v2.8h0ZM109.6,50.6h2.6v-12.8h-2.6v12.8h0ZM120.2,50.6h2.2l5.2-12.8h-2.8l-3.5,9.4-3.4-9.4h-2.9l5.2,12.8h0ZM135.1,50.8c2.1,0,3.7-.7,5.1-2.3l-1.8-1.6c-1,1.1-2,1.5-3.3,1.5-2.2,0-3.4-1.3-3.5-3.4h9c0-.4,0-.8,0-1.2,0-3.3-1.8-6.3-5.8-6.3s-5.9,3.2-5.9,6.7,1.9,6.6,6.1,6.6h0ZM131.6,43.1c0-1.7,1.1-3.4,3.2-3.4s3.1,1.2,3.2,2.8c0,.2,0,.4,0,.5h-6.5ZM144.3,50.6h2.6v-6.6c0-2.6,1.2-3.8,3.1-3.8s1.1.2,1.5.4l1.3-2.3c-.8-.5-1.5-.7-2.3-.7-1.5,0-3,.9-3.6,2.6v-2.3h-2.6v12.8h0ZM158.9,50.8c2.4,0,4.8-1.3,4.8-4.1,0-4.8-6.8-3.3-6.8-5.7s.8-1.3,2-1.3,2.3.8,2.8,1.8l2.1-1.1c-.9-1.7-2.6-2.7-4.7-2.7s-4.6,1.2-4.6,3.8c0,4.5,6.7,2.8,6.7,5.4s-.8,1.8-2.4,1.8-2.7-1.2-3.1-2.3l-2.1,1c.6,2,2.7,3.5,5.3,3.5h0ZM167.5,35.3h2.8v-2.8h-2.8v2.8h0ZM167.5,50.6h2.6v-12.8h-2.6v12.8h0ZM179.3,50.8c1.6,0,3.1-.7,4-2v1.8h2.6v-18.1h-2.6v7.1c-.8-1.2-2.3-2-4-2-3.2,0-5.5,2.5-5.5,6.6s2,6.6,5.5,6.6h0ZM180,48.3c-2.3,0-3.4-1.6-3.4-4.2s1.2-4.2,3.5-4.2,3.6,1.9,3.6,4.2-1.2,4.2-3.6,4.2h0ZM195.4,37.5c-2.4,0-4.2,1-5.6,2.7l1.9,1.6c1-1.3,2.2-2,3.6-2s2.8,1,2.8,2.7v.4h-3.3c-1.4,0-2.6.2-3.5.6-1.1.6-1.8,1.5-1.8,3.2,0,2.7,2.2,4.1,4.5,4.1s3.2-.7,4.1-2.2l.2,2h2.4v-8c0-3.3-2.3-5-5.3-5h0ZM194.4,48.5c-1.5,0-2.3-.7-2.3-1.8s.3-1,.7-1.3c.6-.4,1.5-.5,2.4-.5h3v.4c-.3,1.7-1.6,3.2-3.7,3.2h0ZM209.5,50.8c1.6,0,3.1-.7,4-2v1.8h2.6v-18.1h-2.6v7.1c-.8-1.2-2.3-2-4-2-3.2,0-5.5,2.5-5.5,6.6s2,6.6,5.5,6.6h0ZM210.1,48.3c-2.3,0-3.4-1.6-3.4-4.2s1.2-4.2,3.5-4.2,3.6,1.9,3.6,4.2-1.2,4.2-3.6,4.2h0ZM232.5,50.8c1.6,0,3.1-.7,4-2v1.8h2.6v-18.1h-2.6v7.1c-.8-1.2-2.3-2-4-2-3.2,0-5.5,2.5-5.5,6.6s2,6.6,5.5,6.6h0ZM233.1,48.3c-2.3,0-3.4-1.6-3.4-4.2s1.2-4.2,3.5-4.2,3.6,1.9,3.6,4.2-1.2,4.2-3.6,4.2h0ZM249,50.8c2.1,0,3.7-.7,5.1-2.3l-1.8-1.6c-1,1.1-2,1.5-3.3,1.5-2.2,0-3.4-1.3-3.5-3.4h9c0-.4,0-.8,0-1.2,0-3.3-1.8-6.3-5.8-6.3s-5.9,3.2-5.9,6.7,1.9,6.6,6.1,6.6h0ZM245.5,43.1c0-1.7,1.1-3.4,3.2-3.4s3.1,1.2,3.2,2.8c0,.2,0,.4,0,.5h-6.5Z"/>
  </g>
  <rect x="265.3" y="59.4" width="79" height="25.3"/>
  <g class="st0">
    <g class="st0">
      <path class="st1" d="M283.2,73.8c0,2-.5,3.6-1.6,4.7s-2.4,1.7-4.2,1.7-2.1-.2-2.9-.7c-.9-.5-1.5-1.2-2-2.2-.5-.9-.7-2.1-.7-3.5,0-2,.5-3.6,1.5-4.7,1-1.1,2.4-1.6,4.2-1.6s2.1.2,3,.7c.9.5,1.5,1.2,2,2.1.5.9.7,2.1.7,3.4ZM274.2,73.8c0,1.4.3,2.5.8,3.2.5.8,1.3,1.2,2.5,1.2s2-.4,2.5-1.2c.5-.8.8-1.8.8-3.2s-.3-2.5-.8-3.2c-.5-.7-1.4-1.1-2.5-1.1s-2,.4-2.5,1.1c-.5.7-.8,1.8-.8,3.2Z"/>
      <path class="st1" d="M292.4,67.4c1.4,0,2.5.4,3.3,1.1.8.7,1.1,1.9,1.1,3.4v8h-2.4v-7.6c0-1.9-.8-2.9-2.5-2.9s-2.1.4-2.6,1.1c-.5.7-.7,1.8-.7,3.2v6.2h-2.4v-12.2h1.9l.3,1.6h.1c.4-.6.9-1.1,1.6-1.4.7-.3,1.4-.5,2.2-.5Z"/>
      <path class="st1" d="M302.9,79.9h-2.4v-17.2h2.4v17.2Z"/>
      <path class="st1" d="M307.9,63c.4,0,.7.1,1,.3.3.2.4.6.4,1.1s-.1.8-.4,1.1c-.3.2-.6.3-1,.3s-.7-.1-1-.3c-.3-.2-.4-.6-.4-1.1s.1-.9.4-1.1c.3-.2.6-.3,1-.3ZM309.1,67.7v12.2h-2.4v-12.2h2.4Z"/>
      <path class="st1" d="M319.1,67.4c1.4,0,2.5.4,3.3,1.1.8.7,1.1,1.9,1.1,3.4v8h-2.4v-7.6c0-1.9-.8-2.9-2.5-2.9s-2.1.4-2.6,1.1c-.5.7-.7,1.8-.7,3.2v6.2h-2.4v-12.2h1.9l.3,1.6h.1c.4-.6.9-1.1,1.6-1.4.7-.3,1.4-.5,2.2-.5Z"/>
      <path class="st1" d="M332,67.4c1.6,0,2.9.5,3.8,1.5.9,1,1.4,2.3,1.4,4v1.3h-8.2c0,1.3.4,2.2,1,2.9.6.7,1.5,1,2.6,1s1.5,0,2.1-.2c.6-.1,1.2-.4,1.9-.6v2c-.6.3-1.2.5-1.9.6-.6.1-1.4.2-2.2.2s-2.2-.2-3.1-.7c-.9-.5-1.6-1.2-2.1-2.1-.5-.9-.8-2.1-.8-3.4s.2-2.5.7-3.5,1.1-1.7,1.9-2.2,1.8-.8,2.9-.8ZM332,69.3c-.9,0-1.6.3-2.1.8-.5.6-.8,1.4-.9,2.4h5.8c0-1-.2-1.7-.7-2.3-.4-.6-1.1-.9-2.1-.9Z"/>
    </g>
  </g>
</svg>