<svg width="16" height="16" viewBox="0 0 16 16" fill="none" xmlns="http://www.w3.org/2000/svg">
<path d="M12.3512 0H3.64882C2.68109 0 1.753 0.384428 1.06871 1.06871C0.384428 1.753 0 2.68109 0 3.64882V12.3512C0 13.3189 0.384428 14.247 1.06871 14.9313C1.753 15.6156 2.68109 16 3.64882 16H12.3512C13.3189 16 14.247 15.6156 14.9313 14.9313C15.6156 14.247 16 13.3189 16 12.3512V3.64882C16 2.68109 15.6156 1.753 14.9313 1.06871C14.247 0.384428 13.3189 0 12.3512 0ZM5.40964 12.9165C5.41221 12.9612 5.40563 13.0059 5.39029 13.0479C5.37495 13.0899 5.35118 13.1284 5.32045 13.1609C5.28971 13.1934 5.25265 13.2193 5.21155 13.2369C5.17045 13.2546 5.12617 13.2637 5.08144 13.2636H3.62092C3.53285 13.2614 3.44913 13.2248 3.38776 13.1616C3.32639 13.0984 3.29226 13.0136 3.29272 12.9255V6.85128C3.29151 6.80743 3.29911 6.76378 3.31506 6.72291C3.33102 6.68204 3.355 6.64479 3.3856 6.61335C3.41619 6.58191 3.45278 6.55692 3.4932 6.53987C3.53362 6.52281 3.57705 6.51403 3.62092 6.51405H5.08144C5.12531 6.51403 5.16874 6.52281 5.20916 6.53987C5.24957 6.55692 5.28616 6.58191 5.31676 6.61335C5.34736 6.64479 5.37134 6.68204 5.3873 6.72291C5.40325 6.76378 5.41085 6.80743 5.40964 6.85128V12.9165ZM4.3241 5.23651C4.16598 5.23533 4.00963 5.20301 3.864 5.1414C3.71836 5.0798 3.58629 4.99011 3.47532 4.87746C3.36434 4.76481 3.27665 4.6314 3.21723 4.48486C3.15781 4.33832 3.12784 4.18151 3.12903 4.02338C3.13021 3.86526 3.16253 3.70892 3.22414 3.56328C3.28574 3.41765 3.37543 3.28557 3.48808 3.1746C3.60073 3.06363 3.73413 2.97593 3.88068 2.91651C4.02722 2.85709 4.18403 2.82712 4.34215 2.82831C4.65601 2.83851 4.95346 2.97097 5.17102 3.19742C5.38859 3.42387 5.50904 3.72637 5.50669 4.04039C5.50433 4.35441 5.37935 4.65507 5.15842 4.87823C4.93748 5.10139 4.63808 5.22937 4.3241 5.23487M13.1996 12.9067C13.1992 12.9896 13.1667 13.0691 13.1088 13.1285C13.0509 13.1879 12.9723 13.2225 12.8894 13.225H11.3477C11.2647 13.2225 11.1859 13.1877 11.128 13.1282C11.0702 13.0686 11.0377 12.9889 11.0375 12.9058V10.0964C11.0375 9.67713 11.1655 8.27241 9.92492 8.27241C8.95754 8.27241 8.76636 9.25703 8.72944 9.69518V12.9698C8.72948 13.053 8.69712 13.133 8.63922 13.1927C8.58132 13.2524 8.50243 13.2873 8.41928 13.2898H6.92349C6.83876 13.2896 6.75758 13.2558 6.69774 13.1958C6.63791 13.1358 6.60431 13.0546 6.60431 12.9698V6.82174C6.60687 6.73859 6.64171 6.65971 6.70145 6.60181C6.76118 6.54391 6.84112 6.51155 6.92431 6.51159H8.41928C8.50247 6.51155 8.58241 6.54391 8.64215 6.60181C8.70188 6.65971 8.73672 6.73859 8.73928 6.82174V7.35097C8.95756 7.03148 9.25893 6.77765 9.61088 6.61686C9.96283 6.45607 10.352 6.39442 10.7364 6.43856C13.2267 6.43856 13.2176 8.76472 13.2176 10.0874L13.1996 12.9067Z" fill="white"/>
</svg>
