<svg width="19" height="19" viewBox="0 0 19 19" fill="none" xmlns="http://www.w3.org/2000/svg">
<path fill-rule="evenodd" clip-rule="evenodd" d="M12.4496 17.4163V11.2849H14.5079L14.8159 8.89563H12.4488V7.37009C12.4488 6.67817 12.6412 6.20634 13.6339 6.20634H14.899V4.06884C14.2864 4.00302 13.6706 3.9713 13.0544 3.97384C11.2304 3.97384 9.98198 5.08772 9.98198 7.13259V8.89563H7.91732V11.2849H9.98119V17.4163H2.45798C1.97507 17.4163 1.58398 17.0253 1.58398 16.5423V2.45701C1.58398 1.97409 1.97507 1.58301 2.45798 1.58301H16.5433C17.0262 1.58301 17.4173 1.97409 17.4173 2.45701V16.5423C17.4173 17.0253 17.0262 17.4163 16.5433 17.4163H12.4496Z" fill="white"/>
</svg>
