<svg width="24" height="24" viewBox="0 0 24 24" fill="none" xmlns="http://www.w3.org/2000/svg">
<path d="M18.889 7.01222C19.697 6.51689 20.232 5.83889 20.494 4.97822C19.756 5.37707 18.9641 5.66707 18.143 5.83922C17.44 5.08322 16.55 4.69922 15.483 4.69922C14.44 4.69922 13.559 5.06522 12.84 5.77722C12.4928 6.11532 12.2183 6.52076 12.0333 6.9687C11.8482 7.41664 11.7566 7.89763 11.764 8.38222C11.764 8.69122 11.803 8.96722 11.881 9.20122C8.80505 9.09622 6.25905 7.82022 4.25305 5.36422C3.91305 5.96522 3.74305 6.57722 3.74305 7.21022C3.74305 8.51222 4.29138 9.54189 5.38805 10.2992C4.76305 10.2462 4.21205 10.0882 3.74305 9.82922C3.74305 10.7582 4.01605 11.5342 4.56305 12.2172C5.09423 12.883 5.84313 13.3401 6.67805 13.5082C6.36471 13.5876 6.03838 13.6269 5.69905 13.6262C5.38705 13.6269 5.16571 13.5992 5.03505 13.5432C5.26505 14.3002 5.69905 14.9142 6.32605 15.3842C6.94582 15.855 7.69984 16.1153 8.47805 16.1272C7.14605 17.1722 5.62305 17.6892 3.90005 17.6892C3.47805 17.6892 3.17905 17.6832 2.99805 17.6512C4.69505 18.7532 6.58405 19.3002 8.67405 19.3002C10.812 19.3002 12.7034 18.7582 14.348 17.6742C15.993 16.5962 17.207 15.2662 17.987 13.7002C18.7573 12.1845 19.1589 10.5084 19.159 8.80822V8.34022C19.8778 7.80996 20.5002 7.16018 20.999 6.41922C20.3263 6.71275 19.6163 6.91229 18.889 7.01222Z" fill="white"/>
</svg>
