<svg width="41" height="51" viewBox="0 0 41 51" fill="none" xmlns="http://www.w3.org/2000/svg">
<path d="M39.4764 17.0759C39.1859 17.3013 34.0566 20.1915 34.0566 26.6181C34.0566 34.0516 40.5834 36.6813 40.7787 36.7464C40.7487 36.9067 39.7419 40.348 37.3375 43.8543C35.1936 46.9399 32.9546 50.0204 29.5484 50.0204C26.1423 50.0204 25.2657 48.0419 21.3336 48.0419C17.5016 48.0419 16.1392 50.0856 13.0235 50.0856C9.90792 50.0856 7.73398 47.2304 5.23446 43.7241C2.33923 39.6066 0 33.21 0 27.1391C0 17.4015 6.33145 12.2371 12.5627 12.2371C15.8737 12.2371 18.6337 14.4111 20.7125 14.4111C22.691 14.4111 25.7766 12.1069 29.5434 12.1069C30.971 12.1069 36.1003 12.2371 39.4764 17.0759ZM27.7552 7.98444C29.313 6.13609 30.415 3.57146 30.415 1.00682C30.415 0.651177 30.3849 0.290525 30.3198 0C27.7852 0.0951721 24.7698 1.68805 22.9515 3.79687C21.5239 5.4198 20.1915 7.98444 20.1915 10.5841C20.1915 10.9748 20.2566 11.3656 20.2867 11.4908C20.447 11.5208 20.7074 11.5559 20.9679 11.5559C23.242 11.5559 26.1022 10.0331 27.7552 7.98444Z" fill="black"/>
</svg>
